<?xml version="1.0" encoding="UTF-8"?>
<svg width="25px" height="33px" viewBox="0 0 25 33" version="1.1" xmlns="http://www.w3.org/2000/svg" xmlns:xlink="http://www.w3.org/1999/xlink">
    <title>location-pin-svgrepo-com</title>
    <g id="Page-1" stroke="none" stroke-width="1" fill="none" fill-rule="evenodd">
        <g id="location-pin-svgrepo-com" fill="#FFFFFF">
            <path d="M12.5,0 C5.60741018,0 0,5.52253696 0,12.3107363 C0,22.4247023 11.2557899,32.3001135 11.7351223,32.7156676 C11.9536265,32.9051114 12.2267568,33 12.5,33 C12.7732432,33 13.0463735,32.9052225 13.2649906,32.7156676 C13.7440972,32.3002246 25,22.4248134 25,12.3107363 C25,5.52253696 19.3925898,0 12.5,0 Z M12.5,30.2986758 C10.011467,27.9246838 2.31483572,19.962155 2.31483572,12.3107363 C2.31483572,6.7791994 6.88389931,2.27888122 12.5,2.27888122 C18.1161007,2.27888122 22.6851643,6.7791994 22.6851643,12.3107363 C22.6851643,19.9620439 14.988533,27.9245726 12.5,30.2986758 Z" id="Shape" fill-rule="nonzero"></path>
            <path d="M12.5,7 C9.46724461,7 7,9.46729569 7,12.5 C7,15.5328109 9.46724461,18 12.5,18 C15.5327554,18 18,15.5328109 18,12.5 C18,9.46729569 15.5327554,7 12.5,7 Z M12.5,15.8144496 C10.6803253,15.8144496 9.19993564,14.3276146 9.19993564,12.5 C9.19993564,10.672492 10.6803253,9.18555043 12.5,9.18555043 C14.3196747,9.18555043 15.8000644,10.6723854 15.8000644,12.5 C15.8000644,14.3276146 14.3196747,15.8144496 12.5,15.8144496 Z" id="Shape" fill-rule="nonzero"></path>
            <ellipse id="Oval" cx="12.5" cy="12" rx="3.5" ry="4"></ellipse>
        </g>
    </g>
</svg>