<?xml version="1.0" encoding="UTF-8"?>
<svg width="143px" height="265px" viewBox="0 0 143 265" version="1.1" xmlns="http://www.w3.org/2000/svg" xmlns:xlink="http://www.w3.org/1999/xlink">
    <title>pin</title>
    <g id="Page-1" stroke="none" stroke-width="1" fill="none" fill-rule="evenodd">
        <g id="pin" fill="#FFFFFF" fill-rule="nonzero">
            <path d="M95.831,70.804 C95.831,84.277 84.927,95.2 71.474,95.2 C58.04,95.2 47.117,84.277 47.117,70.804 C47.117,57.37 58.021,46.467 71.474,46.467 C84.927,46.467 95.831,57.37 95.831,70.804 Z M142.298002,70.795 C142.298002,79.559 140.637,87.893 137.735,95.631 C128.453,123.202 66.999,264.938 66.999,264.938 C66.999,264.938 9.14,110.403 4.118,92.68 C1.881,85.812 0.64,78.484 0.64,70.814 C0.64,31.743 32.354,-2.36207694e-06 71.474,-2.36207694e-06 C110.593,-0.01 142.307,31.733 142.298002,70.795 Z M116.661,71.078 C116.661,46.125 96.447,25.881 71.474,25.881 C46.521,25.881 26.297,46.115 26.297,71.068 C26.297,96.021 46.521,116.255 71.474,116.255 C96.446,116.255 116.661,96.031 116.661,71.078 Z" id="Shape"></path>
        </g>
    </g>
</svg>